<svg width="320" height="72" viewBox="0 0 320 72" fill="none" xmlns="http://www.w3.org/2000/svg">
  <g>
    <path d="M8 14C8 8.47715 12.4772 4 18 4H50C55.5228 4 60 8.47715 60 14V46C60 51.5228 55.5228 56 50 56H36L26 68V56H18C12.4772 56 8 51.5228 8 46V14Z" fill="#0EA5E9"/>
    <circle cx="24" cy="24" r="5" fill="white"/>
    <circle cx="34" cy="38" r="5" fill="white"/>
    <circle cx="44" cy="24" r="5" fill="white"/>
    <path d="M26.5 26.5L31.5 35M41.5 26.5L36.5 35" stroke="white" stroke-width="2.5" stroke-linecap="round"/>
  </g>
  <g fill="#1a202c">
    <path d="M76 16V56H84V38C84 34 86.5 31.5 90.5 31.5C94.5 31.5 96.5 34 96.5 38V56H104.5V36C104.5 29.5 100.5 25 93 25C89 25 85.5 26.5 84 29.5V16H76Z"/>
    <path d="M112 26V42C112 45.5 114 48 118 48C122 48 125 45 125 41V26H133V56H125.5V52.5C124 54.5 121 57 116 57C110 57 104 53 104 44V26H112Z"/>
    <path d="M141 16V29C143 26.5 146.5 25 150.5 25C159 25 165 31.5 165 40C165 48.5 159 55 150.5 55C146.5 55 143 53.5 141 51V56H133V16H141ZM148.5 48C153.5 48 157 44.5 157 40C157 35.5 153.5 32 148.5 32C143.5 32 140 35.5 140 40C140 44.5 143.5 48 148.5 48Z"/>
    <path d="M171 16V29C173 26.5 176.5 25 180.5 25C189 25 195 31.5 195 40C195 48.5 189 55 180.5 55C176.5 55 173 53.5 171 51V56H163V16H171ZM178.5 48C183.5 48 187 44.5 187 40C187 35.5 183.5 32 178.5 32C173.5 32 170 35.5 170 40C170 44.5 173.5 48 178.5 48Z"/>
    <path d="M218.5 40C218.5 48.5 211.5 55 202.5 55C193.5 55 186.5 48.5 186.5 40C186.5 31.5 193.5 25 202.5 25C211.5 25 218.5 31.5 218.5 40ZM194.5 40C194.5 44.5 198 48 202.5 48C207 48 210.5 44.5 210.5 40C210.5 35.5 207 32 202.5 32C198 32 194.5 35.5 194.5 40Z"/>
    <path d="M235 26V32H229V44C229 46.5 230.5 48 233 48H235V56H231.5C225 56 221 52 221 46V32H216V26H221V18H229V26H235Z"/>
  </g>
  <g fill="#2DD4BF">
    <circle cx="243" cy="53" r="3.5"/>
    <circle cx="253" cy="20" r="4"/>
    <path d="M249 26H257V56H249V26Z"/>
    <path d="M282 40C282 48.5 276 55 267.5 55C259 55 253 48.5 253 40C253 31.5 259 25 267.5 25C276 25 282 31.5 282 40ZM260.5 40C260.5 44.5 263.5 48 267.5 48C271.5 48 274.5 44.5 274.5 40C274.5 35.5 271.5 32 267.5 32C263.5 32 260.5 35.5 260.5 40Z"/>
  </g>
</svg>